<?xml version="1.0" encoding="UTF-8"?>
<!DOCTYPE svg PUBLIC "-//W3C//DTD SVG 1.1//EN" "http://www.w3.org/Graphics/SVG/1.1/DTD/svg11.dtd">
<!-- Creator: CorelDRAW 2018 (64-Bit) -->
<svg xmlns="http://www.w3.org/2000/svg" xml:space="preserve" width="66.4999mm" height="84.2262mm" version="1.1" style="shape-rendering:geometricPrecision; text-rendering:geometricPrecision; image-rendering:optimizeQuality; fill-rule:evenodd; clip-rule:evenodd"
viewBox="0 0 1080.52 1368.55"
 xmlns:xlink="http://www.w3.org/1999/xlink">
 <defs>
  <style type="text/css">
   <![CDATA[
    .str0 {stroke:#DEA719;stroke-width:16.51;stroke-miterlimit:22.9256}
    .str1 {stroke:#663333;stroke-width:1.24;stroke-miterlimit:22.9256}
    .str3 {stroke:#01357B;stroke-width:19.26;stroke-linecap:round;stroke-linejoin:round;stroke-miterlimit:10}
    .str2 {stroke:#DEA719;stroke-width:19.26;stroke-linecap:round;stroke-linejoin:round;stroke-miterlimit:10}
    .fil1 {fill:none}
    .fil22 {fill:none;fill-rule:nonzero}
    .fil0 {fill:#01357B;fill-rule:nonzero}
    .fil14 {fill:white;fill-rule:nonzero}
    .fil9 {fill:url(#id0)}
    .fil8 {fill:url(#id1)}
    .fil12 {fill:url(#id2)}
    .fil4 {fill:url(#id3)}
    .fil15 {fill:url(#id4)}
    .fil21 {fill:url(#id5)}
    .fil11 {fill:url(#id6)}
    .fil3 {fill:url(#id7)}
    .fil6 {fill:url(#id8)}
    .fil10 {fill:url(#id9)}
    .fil2 {fill:url(#id10)}
    .fil17 {fill:url(#id11)}
    .fil13 {fill:url(#id12)}
    .fil5 {fill:url(#id13)}
    .fil19 {fill:url(#id14)}
    .fil16 {fill:url(#id15)}
    .fil20 {fill:url(#id16)}
    .fil7 {fill:url(#id17)}
    .fil18 {fill:url(#id18)}
   ]]>
  </style>
  <radialGradient id="id0" gradientUnits="userSpaceOnUse" gradientTransform="matrix(1.53087 0.883896 -0.883896 1.53087 523 -790)" cx="395.69" cy="828.87" r="13.76" fx="395.69" fy="828.87">
   <stop offset="0" style="stop-opacity:1; stop-color:white"/>
   <stop offset="1" style="stop-opacity:1; stop-color:#DEA719"/>
  </radialGradient>
  <radialGradient id="id1" gradientUnits="userSpaceOnUse" gradientTransform="matrix(1.53087 0.883896 -0.883896 1.53087 571 -710)" xlink:href="#id0" cx="305.35" cy="828.87" r="13.76" fx="305.35" fy="828.87">
  </radialGradient>
  <radialGradient id="id2" gradientUnits="userSpaceOnUse" gradientTransform="matrix(1.53087 0.883896 -0.883896 1.53087 699 -787)" xlink:href="#id0" cx="305.35" cy="974.58" r="13.76" fx="305.35" fy="974.58">
  </radialGradient>
  <radialGradient id="id3" gradientUnits="userSpaceOnUse" gradientTransform="matrix(1.53087 0.883896 -0.883896 1.53087 432 -627)" xlink:href="#id0" cx="305.35" cy="672.02" r="13.76" fx="305.35" fy="672.02">
  </radialGradient>
  <radialGradient id="id4" gradientUnits="userSpaceOnUse" gradientTransform="matrix(1.53094 0.883901 -0.883935 1.53088 108 -867)" xlink:href="#id0" cx="666.48" cy="522.76" r="13.76" fx="666.48" fy="522.76">
  </radialGradient>
  <radialGradient id="id5" gradientUnits="userSpaceOnUse" gradientTransform="matrix(1.53088 0.883901 -0.883901 1.53088 710 -1261)" xlink:href="#id0" cx="694.27" cy="1220.14" r="13.76" fx="694.27" fy="1220.14">
  </radialGradient>
  <radialGradient id="id6" gradientUnits="userSpaceOnUse" gradientTransform="matrix(1.53087 0.883896 -0.883896 1.53087 747 -707)" xlink:href="#id0" cx="215" cy="974.58" r="13.76" fx="215" fy="974.58">
  </radialGradient>
  <radialGradient id="id7" gradientUnits="userSpaceOnUse" gradientTransform="matrix(1.53087 0.883896 -0.883896 1.53087 480 -547)" xlink:href="#id0" cx="215" cy="672.02" r="13.76" fx="215" fy="672.02">
  </radialGradient>
  <radialGradient id="id8" gradientUnits="userSpaceOnUse" gradientTransform="matrix(1.53091 0.883896 -0.883918 1.53087 666 -550)" xlink:href="#id0" cx="124.66" cy="828.87" r="13.76" fx="124.66" fy="828.87">
  </radialGradient>
  <radialGradient id="id9" gradientUnits="userSpaceOnUse" gradientTransform="matrix(1.53091 0.883896 -0.883918 1.53087 795 -628)" xlink:href="#id0" cx="124.66" cy="974.58" r="13.76" fx="124.66" fy="974.58">
  </radialGradient>
  <radialGradient id="id10" gradientUnits="userSpaceOnUse" gradientTransform="matrix(1.53091 0.883896 -0.883918 1.53087 528 -467)" xlink:href="#id0" cx="124.66" cy="672.02" r="13.76" fx="124.66" fy="672.02">
  </radialGradient>
  <radialGradient id="id11" gradientUnits="userSpaceOnUse" gradientTransform="matrix(1.53088 0.883901 -0.883901 1.53088 142 -1171)" xlink:href="#id0" cx="902.34" cy="702.59" r="13.76" fx="902.34" fy="702.59">
  </radialGradient>
  <radialGradient id="id12" gradientUnits="userSpaceOnUse" gradientTransform="matrix(1.53087 0.883896 -0.883896 1.53087 651 -867)" xlink:href="#id0" cx="395.69" cy="974.58" r="13.76" fx="395.69" fy="974.58">
  </radialGradient>
  <radialGradient id="id13" gradientUnits="userSpaceOnUse" gradientTransform="matrix(1.53087 0.883896 -0.883896 1.53087 384 -707)" xlink:href="#id0" cx="395.69" cy="672.02" r="13.76" fx="395.69" fy="672.02">
  </radialGradient>
  <radialGradient id="id14" gradientUnits="userSpaceOnUse" gradientTransform="matrix(1.53088 0.883901 -0.883901 1.53088 380 -1347)" xlink:href="#id0" cx="930.13" cy="988.87" r="13.76" fx="930.13" fy="988.87">
  </radialGradient>
  <radialGradient id="id15" gradientUnits="userSpaceOnUse" gradientTransform="matrix(1.53088 0.883901 -0.883901 1.53088 141 -1014)" xlink:href="#id0" cx="772.77" cy="623.88" r="13.76" fx="772.77" fy="623.88">
  </radialGradient>
  <radialGradient id="id16" gradientUnits="userSpaceOnUse" gradientTransform="matrix(1.53088 0.883901 -0.883901 1.53088 519 -1293)" xlink:href="#id0" cx="816.47" cy="1077.01" r="13.76" fx="816.47" fy="1077.01">
  </radialGradient>
  <radialGradient id="id17" gradientUnits="userSpaceOnUse" gradientTransform="matrix(1.53087 0.883896 -0.883896 1.53087 618 -630)" xlink:href="#id0" cx="215" cy="828.87" r="13.76" fx="215" fy="828.87">
  </radialGradient>
  <radialGradient id="id18" gradientUnits="userSpaceOnUse" gradientTransform="matrix(1.53088 0.883901 -0.883901 1.53088 297 -1227)" xlink:href="#id0" cx="872" cy="859.83" r="13.76" fx="872" fy="859.83">
  </radialGradient>
 </defs>
 <g id="Layer_x0020_1">
  <metadata id="CorelCorpID_0Corel-Layer"/>
  <g id="_2033464176640">
   <g>
    <g>
     <path class="fil0" d="M333.64 1368.55c-99.92,0 -181.21,-81.29 -181.21,-181.21 0,-4.57 0.18,-9.17 0.53,-13.77 -85.42,-6.41 -152.96,-77.96 -152.96,-164.99 0,-53.23 25.16,-102.39 67.81,-133.55 -3.24,-9.65 -4.86,-19.73 -4.86,-30.08 0,-16.68 4.26,-32.72 12.41,-46.98 -26.74,-28.58 -41.88,-66.58 -41.88,-105.88 0,-85.4 69.48,-154.88 154.88,-154.88 8.6,0 17.19,0.72 25.67,2.15 2.96,-80.38 69.27,-144.85 150.37,-144.85 81.24,0 146.92,63.13 150.29,144.07 0.12,0.71 0.18,1.43 0.18,2.17l0 646.6c0,99.92 -81.29,181.21 -181.21,181.21zm-166.12 -220.6l0 0c3.77,0 7.36,1.63 9.83,4.48 2.52,2.9 3.63,6.76 3.03,10.56 -1.27,8.07 -1.92,16.26 -1.92,24.35 0,85.56 69.61,155.18 155.17,155.18 85.56,0 155.18,-69.61 155.18,-155.18l0 -644.92c-0.06,-0.42 -0.09,-0.85 -0.11,-1.28 -2.05,-67.62 -56.67,-120.59 -124.33,-120.59 -68.61,0 -124.43,55.82 -124.43,124.44 0,2.94 0.14,6.12 0.42,9.72 0.33,4.25 -1.44,8.39 -4.74,11.09 -3.3,2.7 -7.71,3.61 -11.81,2.44 -11.57,-3.31 -23.51,-4.99 -35.47,-4.99 -71.04,0 -128.84,57.8 -128.84,128.84 0,35.76 15.08,70.23 41.37,94.56 4.87,4.51 5.57,11.97 1.62,17.3 -8.83,11.93 -13.5,26.1 -13.5,40.99 0,10.27 2.21,20.15 6.56,29.38 2.8,5.94 0.75,13.02 -4.79,16.54 -40.53,25.78 -64.73,69.79 -64.73,117.7 0,76.88 62.54,139.42 139.42,139.42l1.88 -0.05c0.06,0 0.13,0 0.19,0z"/>
    </g>
    <g>
     <path class="fil0" d="M158.35 939.96c-52.39,0 -95.01,-42.63 -95.01,-95.01 0,-52.39 42.63,-95.02 95.01,-95.02 7.19,0 13.02,5.83 13.02,13.02 0,7.19 -5.83,13.02 -13.02,13.02 -38.04,0 -68.98,30.95 -68.98,68.98 0,38.03 30.94,68.98 68.98,68.98 7.19,0 13.02,5.83 13.02,13.02 0,7.19 -5.83,13.02 -13.02,13.02z"/>
    </g>
    <g>
     <path class="fil0" d="M225.1 634.54c-4.14,0 -8.2,-1.96 -10.73,-5.62 -7.65,-11.1 -11.7,-24.12 -11.7,-37.65 0,-36.61 29.78,-66.38 66.38,-66.38 14.37,0 28.04,4.51 39.53,13.04 5.77,4.28 6.98,12.44 2.69,18.21 -4.28,5.78 -12.43,6.98 -18.21,2.7 -6.97,-5.18 -15.28,-7.92 -24.01,-7.92 -22.25,0 -40.35,18.1 -40.35,40.35 0,8.23 2.45,16.14 7.1,22.87 4.08,5.92 2.59,14.02 -3.32,18.11 -2.26,1.56 -4.83,2.3 -7.38,2.3z"/>
    </g>
    <g>
     <path class="fil0" d="M360.16 1288.87c-23.75,0 -46.99,-8.77 -64.96,-25.04 -5.33,-4.82 -5.74,-13.06 -0.91,-18.39 4.82,-5.32 13.05,-5.74 18.38,-0.91 17.06,15.44 40.62,21.65 63.04,16.55 37.93,-8.61 61.78,-46.48 53.17,-84.41 -4.17,-18.38 -15.25,-34.03 -31.19,-44.07 -6.09,-3.83 -7.91,-11.87 -4.08,-17.95 3.83,-6.08 11.87,-7.9 17.95,-4.08 21.83,13.75 36.99,35.18 42.71,60.33 11.79,51.93 -20.87,103.77 -72.8,115.57 -7.07,1.6 -14.22,2.39 -21.32,2.39z"/>
    </g>
    <g>
     <path class="fil0" d="M428.01 655.4c-7,0 -14.04,-0.76 -21.05,-2.31 -25.18,-5.57 -46.69,-20.61 -60.57,-42.36 -13.87,-21.75 -18.45,-47.6 -12.88,-72.79 6.79,-30.71 28.21,-56.27 57.29,-68.37 6.64,-2.75 14.26,0.39 17.02,7.02 2.76,6.64 -0.39,14.25 -7.02,17.02 -21.26,8.84 -36.9,27.51 -41.86,49.94 -4.07,18.4 -0.73,37.28 9.41,53.16 10.13,15.88 25.85,26.87 44.24,30.94 18.4,4.08 37.28,0.73 53.17,-9.4 6.06,-3.86 14.11,-2.08 17.98,3.97 3.86,6.06 2.08,14.11 -3.98,17.97 -15.71,10.02 -33.56,15.19 -51.75,15.19z"/>
    </g>
    <g>
     <path class="fil0" d="M241.25 1211.75c-55.83,0 -101.24,-45.42 -101.24,-101.24 0,-31.24 14.09,-60.25 38.66,-79.59 5.64,-4.45 13.84,-3.48 18.28,2.17 4.45,5.65 3.47,13.84 -2.18,18.28 -18.26,14.38 -28.73,35.93 -28.73,59.13 0,41.47 33.74,75.21 75.21,75.21 16.43,0 32.03,-5.2 45.12,-15.03 5.75,-4.31 13.91,-3.15 18.23,2.59 4.32,5.75 3.16,13.91 -2.59,18.23 -17.63,13.24 -38.64,20.25 -60.76,20.25z"/>
    </g>
    <g>
     <line class="fil1 str0" x1="60.15" y1="687.51" x2="488.82" y2= "687.51" />
     <circle class="fil2 str1" cx="131.76" cy="687.51" r="32.27"/>
     <circle class="fil3 str1" cx="222.1" cy="687.51" r="32.27"/>
     <circle class="fil4 str1" cx="312.45" cy="687.51" r="32.27"/>
     <circle class="fil5 str1" cx="402.79" cy="687.51" r="32.27"/>
    </g>
    <g>
     <line class="fil1 str0" x1="88.98" y1="844.36" x2="488.82" y2= "844.36" />
     <circle class="fil6 str1" cx="131.76" cy="844.36" r="32.27"/>
     <circle class="fil7 str1" cx="222.1" cy="844.36" r="32.27"/>
     <circle class="fil8 str1" cx="312.45" cy="844.36" r="32.27"/>
     <circle class="fil9 str1" cx="402.79" cy="844.36" r="32.27"/>
    </g>
    <g>
     <line class="fil1 str0" x1="27.28" y1="990.07" x2="488.82" y2= "990.07" />
     <circle class="fil10 str1" cx="131.76" cy="990.07" r="32.27"/>
     <circle class="fil11 str1" cx="222.1" cy="990.07" r="32.27"/>
     <circle class="fil12 str1" cx="312.45" cy="990.07" r="32.27"/>
     <circle class="fil13 str1" cx="402.79" cy="990.07" r="32.27"/>
    </g>
    <path class="fil0" d="M746.88 1368.55c99.91,0 181.21,-81.29 181.21,-181.21 0,-4.57 -0.18,-9.17 -0.53,-13.77 85.42,-6.41 152.96,-77.96 152.96,-164.99 0,-53.23 -25.16,-102.39 -67.82,-133.55 3.24,-9.65 4.86,-19.73 4.86,-30.08 0,-16.69 -4.26,-32.72 -12.41,-46.98 26.74,-28.57 41.88,-66.57 41.88,-105.88 0,-85.4 -69.48,-154.88 -154.88,-154.88 -8.6,0 -17.19,0.72 -25.67,2.15 -2.96,-80.38 -69.27,-144.85 -150.37,-144.85 -81.24,0 -146.92,63.13 -150.29,144.07 -0.12,0.71 -0.18,1.43 -0.18,2.17l0 646.6c0,99.92 81.29,181.21 181.21,181.21z"/>
    <path class="fil14" d="M805.18 633.96c0,15.35 -12.45,27.79 -27.79,27.79 -15.35,0 -27.79,-12.44 -27.79,-27.79 0,-15.35 12.44,-27.79 27.79,-27.79 15.35,0 27.79,12.44 27.79,27.79z"/>
    <path class="fil14" d="M904.42 869.91c0,15.35 -12.45,27.79 -27.79,27.79 -15.35,0 -27.79,-12.44 -27.79,-27.79 0,-15.35 12.44,-27.79 27.79,-27.79 15.35,0 27.79,12.44 27.79,27.79z"/>
    <path class="fil14" d="M934.75 712.67c0,15.35 -12.44,27.79 -27.79,27.79 -15.35,0 -27.79,-12.45 -27.79,-27.79 0,-15.35 12.44,-27.79 27.79,-27.79 15.35,0 27.79,12.44 27.79,27.79z"/>
    <path class="fil14" d="M962.54 998.95c0,15.35 -12.44,27.79 -27.79,27.79 -15.35,0 -27.79,-12.45 -27.79,-27.79 0,-15.35 12.44,-27.79 27.79,-27.79 15.35,0 27.79,12.44 27.79,27.79z"/>
    <path class="fil14" d="M848.88 1087.09c0,15.35 -12.45,27.79 -27.79,27.79 -15.35,0 -27.79,-12.44 -27.79,-27.79 0,-15.35 12.44,-27.79 27.79,-27.79 15.35,0 27.79,12.44 27.79,27.79z"/>
    <path class="fil14" d="M726.68 1230.21c0,15.35 -12.45,27.79 -27.79,27.79 -15.35,0 -27.79,-12.45 -27.79,-27.79 0,-15.35 12.44,-27.79 27.79,-27.79 15.35,0 27.79,12.44 27.79,27.79z"/>
    <path class="fil14" d="M698.89 532.84c0,15.35 -12.44,27.79 -27.79,27.79 -15.35,0 -27.79,-12.44 -27.79,-27.79 0,-15.35 12.44,-27.79 27.79,-27.79 15.35,0 27.79,12.44 27.79,27.79z"/>
    <path class="fil14" d="M643.31 879.49l-68.06 0c-5.29,0 -9.58,-4.29 -9.58,-9.58 0,-5.29 4.29,-9.58 9.58,-9.58l68.06 0c5.29,0 9.58,4.29 9.58,9.58 0,5.29 -4.29,9.58 -9.58,9.58z"/>
    <path class="fil14" d="M876.63 879.49l-199.79 0c-5.29,0 -9.58,-4.29 -9.58,-9.58 0,-5.29 4.29,-9.58 9.58,-9.58l199.79 0c5.29,0 9.58,4.29 9.58,9.58 0,5.29 -4.29,9.58 -9.58,9.58z"/>
    <path class="fil14" d="M642.44 797.1l-67.19 0c-5.29,0 -9.58,-4.29 -9.58,-9.58 0,-5.29 4.29,-9.57 9.58,-9.57l67.19 0c5.29,0 9.58,4.29 9.58,9.57 0,5.29 -4.29,9.58 -9.58,9.58z"/>
    <path class="fil14" d="M642.44 717.47l-67.19 0c-5.29,0 -9.58,-4.29 -9.58,-9.58 0,-5.29 4.29,-9.58 9.58,-9.58l64.74 0 132.8 -72.76c4.64,-2.54 10.46,-0.84 13,3.8 2.54,4.64 0.84,10.46 -3.79,13l-134.95 73.94c-1.41,0.78 -2.99,1.18 -4.6,1.18z"/>
    <path class="fil14" d="M642.44 637.84l-67.19 0c-5.29,0 -9.58,-4.29 -9.58,-9.58 0,-5.29 4.29,-9.58 9.58,-9.58l60.07 0 26.61 -88.6c1.52,-5.07 6.86,-7.95 11.93,-6.42 5.06,1.52 7.94,6.86 6.42,11.92l-28.66 95.43c-1.22,4.05 -4.94,6.82 -9.17,6.82z"/>
    <path class="fil14" d="M642.44 1116.06l-67.19 0c-5.29,0 -9.58,-4.29 -9.58,-9.58 0,-5.29 4.29,-9.58 9.58,-9.58l67.19 0c5.29,0 9.58,4.29 9.58,9.58 0,5.29 -4.29,9.58 -9.58,9.58z"/>
    <path class="fil14" d="M824.35 1096.67c-0.93,0 -1.87,-0.14 -2.8,-0.42l-180.54 -55.2 -65.76 0c-5.29,0 -9.58,-4.29 -9.58,-9.58 0,-5.29 4.29,-9.58 9.58,-9.58l67.19 0c0.95,0 1.89,0.14 2.8,0.42l181.91 55.62c5.06,1.55 7.9,6.9 6.36,11.96 -1.26,4.12 -5.05,6.78 -9.15,6.78z"/>
    <path class="fil14" d="M934.76 1008.52c-0.5,0 -1.02,-0.04 -1.53,-0.13l-130.26 -20.98c-5.22,-0.84 -8.77,-5.75 -7.93,-10.98 0.84,-5.22 5.74,-8.8 10.98,-7.93l130.26 20.98c5.22,0.84 8.77,5.75 7.93,10.97 -0.76,4.71 -4.83,8.05 -9.45,8.05z"/>
    <path class="fil14" d="M766.72 981.45c-0.51,0 -1.02,-0.04 -1.54,-0.13l-123.51 -19.9 -66.43 0c-5.29,0 -9.58,-4.29 -9.58,-9.58 0,-5.29 4.29,-9.58 9.58,-9.58l67.19 0c0.51,0 1.02,0.04 1.52,0.12l124.27 20.03c5.22,0.84 8.77,5.75 7.93,10.97 -0.76,4.71 -4.83,8.05 -9.44,8.05z"/>
    <path class="fil14" d="M837.99 741.38c-4.16,0 -7.99,-2.73 -9.2,-6.93 -1.46,-5.09 1.47,-10.39 6.55,-11.85l66.43 -19.14c5.08,-1.46 10.39,1.47 11.85,6.55 1.46,5.08 -1.47,10.39 -6.55,11.85l-66.43 19.14c-0.88,0.25 -1.78,0.38 -2.65,0.38z"/>
    <path class="fil14" d="M701.09 780.83c-4.16,0 -7.99,-2.73 -9.2,-6.93 -1.46,-5.08 1.47,-10.39 6.55,-11.85l100.89 -29.07c5.08,-1.46 10.39,1.47 11.85,6.55 1.46,5.08 -1.47,10.39 -6.55,11.85l-100.89 29.07c-0.88,0.26 -1.78,0.38 -2.65,0.38z"/>
    <path class="fil14" d="M644.6 797.1c-4.16,0 -7.99,-2.73 -9.2,-6.93 -1.47,-5.08 1.47,-10.39 6.55,-11.85l24.53 -7.07c5.09,-1.46 10.39,1.47 11.85,6.55 1.47,5.08 -1.47,10.39 -6.55,11.85l-24.53 7.07c-0.88,0.26 -1.78,0.38 -2.66,0.38z"/>
    <path class="fil14" d="M698.89 1239.79c-3.7,0 -7.23,-2.16 -8.79,-5.77l-53.56 -123.73c-2.1,-4.86 0.13,-10.49 4.98,-12.59 4.87,-2.11 10.49,0.13 12.59,4.98l53.56 123.73c2.1,4.86 -0.13,10.49 -4.98,12.59 -1.24,0.54 -2.53,0.79 -3.8,0.79z"/>
    <circle class="fil15 str1" cx="671.1" cy="532.84" r="21"/>
    <circle class="fil16 str1" cx="777.39" cy="633.95" r="21"/>
    <circle class="fil17 str1" cx="906.96" cy="712.67" r="21"/>
    <circle class="fil18 str1" cx="876.62" cy="869.91" r="21"/>
    <circle class="fil19 str1" cx="934.75" cy="998.95" r="21"/>
    <circle class="fil20 str1" cx="821.09" cy="1087.09" r="21"/>
    <circle class="fil21 str1" cx="698.89" cy="1230.22" r="21"/>
   </g>
   <g>
    <g>
     <path class="fil22 str2" d="M604.26 188.34c0,-35.77 -29.11,-64.86 -64.89,-64.86"/>
    </g>
    <g>
     <g>
      <g>
       <polygon class="fil0" points="559.62,327.33 551.6,326 567.44,230.16 575.46,231.48 "/>
      </g>
      <g>
       <polygon class="fil0" points="519.12,327.33 503.28,231.48 511.3,230.16 527.14,326 "/>
      </g>
     </g>
     <g>
      <path class="fil0" d="M570.92 243.65c-3.33,0 -4.77,-3.24 -5.82,-5.61 -0.44,-0.99 -1.36,-3.04 -1.87,-3.04 -0.52,0 -1.43,2.06 -1.87,3.04 -1.05,2.37 -2.5,5.61 -5.83,5.61 -3.33,0 -4.77,-3.24 -5.82,-5.61 -0.44,-0.99 -1.35,-3.04 -1.87,-3.04 -0.52,0 -1.43,2.06 -1.87,3.05 -1.06,2.37 -2.5,5.61 -5.83,5.61 -3.33,0 -4.77,-3.24 -5.83,-5.61 -0.44,-0.99 -1.35,-3.05 -1.87,-3.05 -0.52,0 -1.43,2.06 -1.87,3.05 -1.05,2.37 -2.49,5.61 -5.82,5.61 -3.33,0 -4.78,-3.24 -5.83,-5.61 -0.44,-0.99 -1.36,-3.04 -1.88,-3.04 -0.52,0 -1.43,2.06 -1.87,3.04 -1.06,2.37 -2.5,5.61 -5.83,5.61l0 -4.33c0.52,0 1.44,-2.06 1.88,-3.04 1.05,-2.37 2.5,-5.61 5.83,-5.61 3.33,0 4.78,3.24 5.83,5.61 0.44,0.98 1.36,3.04 1.88,3.04 0.52,0 1.42,-2.06 1.87,-3.04 1.05,-2.37 2.5,-5.61 5.83,-5.61 3.33,0 4.77,3.25 5.83,5.61 0.44,0.99 1.35,3.04 1.87,3.04 0.52,0 1.43,-2.06 1.87,-3.04 1.05,-2.37 2.49,-5.61 5.83,-5.61 3.33,0 4.77,3.25 5.82,5.61 0.44,0.99 1.35,3.04 1.87,3.04 0.51,0 1.43,-2.06 1.87,-3.04 1.05,-2.37 2.5,-5.61 5.83,-5.61 3.33,0 4.77,3.25 5.83,5.61 0.44,0.99 1.35,3.04 1.87,3.04l0 4.33z"/>
     </g>
    </g>
    <line class="fil22 str2" x1="539.34" y1="65.41" x2="539.34" y2= "9.63" />
    <line class="fil22 str2" x1="603.06" y1="82.46" x2="630.94" y2= "34.15" />
    <line class="fil22 str2" x1="649.72" y1="129.09" x2="698.03" y2= "101.2" />
    <line class="fil22 str2" x1="666.82" y1="192.8" x2="724.36" y2= "192.8" />
    <line class="fil22 str2" x1="649.75" y1="256.53" x2="698.07" y2= "284.42" />
    <line class="fil22 str2" x1="475.62" y1="82.5" x2="447.73" y2= "34.19" />
    <line class="fil22 str2" x1="429" y1="129.16" x2="380.68" y2= "101.27" />
    <line class="fil22 str2" x1="411.94" y1="192.88" x2="356.16" y2= "192.88" />
    <line class="fil22 str2" x1="429.03" y1="256.6" x2="380.72" y2= "284.49" />
    <g>
     <path class="fil22 str3" d="M446.66 188.36c0,-51.23 41.5,-92.71 92.71,-92.71 51.23,0 92.72,41.48 92.72,92.71 0,3.03 -2.22,45.88 -37.14,90.86 -10.23,13.57 -8.54,40.86 -8.46,40.86 -14.37,0 -26.16,0 -40.55,0 -4.39,0 -8.78,0 -13.17,0 -14.36,0 -26.38,0 -40.74,0 0.09,0 1.96,-27.29 -8.23,-40.86 -34.97,-45.02 -37.14,-87.83 -37.14,-90.86z"/>
     <line class="fil22 str3" x1="495.25" y1="339.06" x2="583.5" y2= "339.06" />
     <line class="fil22 str3" x1="501.79" y1="358.01" x2="576.97" y2= "358.01" />
     <line class="fil22 str3" x1="512.83" y1="376.44" x2="565.93" y2= "376.44" />
    </g>
   </g>
  </g>
 </g>
</svg>
